<?xml version="1.0" encoding="utf-8"?>
<svg xmlns="http://www.w3.org/2000/svg" xmlns:xlink="http://www.w3.org/1999/xlink" style="margin: auto; background: rgb(255, 255, 255); display: block; shape-rendering: auto;" width="200px" height="200px" viewBox="0 0 100 100" preserveAspectRatio="xMidYMid">
<g transform="rotate(0 50 50)">
  <rect x="48.5" y="32" rx="0" ry="0" width="3" height="8" fill="#0055a5">
    <animate attributeName="opacity" values="1;0" keyTimes="0;1" dur="1.8518518518518516s" begin="-1.7283950617283947s" repeatCount="indefinite"></animate>
  </rect>
</g><g transform="rotate(24 50 50)">
  <rect x="48.5" y="32" rx="0" ry="0" width="3" height="8" fill="#0055a5">
    <animate attributeName="opacity" values="1;0" keyTimes="0;1" dur="1.8518518518518516s" begin="-1.604938271604938s" repeatCount="indefinite"></animate>
  </rect>
</g><g transform="rotate(48 50 50)">
  <rect x="48.5" y="32" rx="0" ry="0" width="3" height="8" fill="#0055a5">
    <animate attributeName="opacity" values="1;0" keyTimes="0;1" dur="1.8518518518518516s" begin="-1.4814814814814812s" repeatCount="indefinite"></animate>
  </rect>
</g><g transform="rotate(72 50 50)">
  <rect x="48.5" y="32" rx="0" ry="0" width="3" height="8" fill="#0055a5">
    <animate attributeName="opacity" values="1;0" keyTimes="0;1" dur="1.8518518518518516s" begin="-1.3580246913580245s" repeatCount="indefinite"></animate>
  </rect>
</g><g transform="rotate(96 50 50)">
  <rect x="48.5" y="32" rx="0" ry="0" width="3" height="8" fill="#0055a5">
    <animate attributeName="opacity" values="1;0" keyTimes="0;1" dur="1.8518518518518516s" begin="-1.2345679012345676s" repeatCount="indefinite"></animate>
  </rect>
</g><g transform="rotate(120 50 50)">
  <rect x="48.5" y="32" rx="0" ry="0" width="3" height="8" fill="#0055a5">
    <animate attributeName="opacity" values="1;0" keyTimes="0;1" dur="1.8518518518518516s" begin="-1.111111111111111s" repeatCount="indefinite"></animate>
  </rect>
</g><g transform="rotate(144 50 50)">
  <rect x="48.5" y="32" rx="0" ry="0" width="3" height="8" fill="#0055a5">
    <animate attributeName="opacity" values="1;0" keyTimes="0;1" dur="1.8518518518518516s" begin="-0.9876543209876542s" repeatCount="indefinite"></animate>
  </rect>
</g><g transform="rotate(168 50 50)">
  <rect x="48.5" y="32" rx="0" ry="0" width="3" height="8" fill="#0055a5">
    <animate attributeName="opacity" values="1;0" keyTimes="0;1" dur="1.8518518518518516s" begin="-0.8641975308641974s" repeatCount="indefinite"></animate>
  </rect>
</g><g transform="rotate(192 50 50)">
  <rect x="48.5" y="32" rx="0" ry="0" width="3" height="8" fill="#0055a5">
    <animate attributeName="opacity" values="1;0" keyTimes="0;1" dur="1.8518518518518516s" begin="-0.7407407407407406s" repeatCount="indefinite"></animate>
  </rect>
</g><g transform="rotate(216 50 50)">
  <rect x="48.5" y="32" rx="0" ry="0" width="3" height="8" fill="#0055a5">
    <animate attributeName="opacity" values="1;0" keyTimes="0;1" dur="1.8518518518518516s" begin="-0.6172839506172838s" repeatCount="indefinite"></animate>
  </rect>
</g><g transform="rotate(240 50 50)">
  <rect x="48.5" y="32" rx="0" ry="0" width="3" height="8" fill="#0055a5">
    <animate attributeName="opacity" values="1;0" keyTimes="0;1" dur="1.8518518518518516s" begin="-0.4938271604938271s" repeatCount="indefinite"></animate>
  </rect>
</g><g transform="rotate(264 50 50)">
  <rect x="48.5" y="32" rx="0" ry="0" width="3" height="8" fill="#0055a5">
    <animate attributeName="opacity" values="1;0" keyTimes="0;1" dur="1.8518518518518516s" begin="-0.3703703703703703s" repeatCount="indefinite"></animate>
  </rect>
</g><g transform="rotate(288 50 50)">
  <rect x="48.5" y="32" rx="0" ry="0" width="3" height="8" fill="#0055a5">
    <animate attributeName="opacity" values="1;0" keyTimes="0;1" dur="1.8518518518518516s" begin="-0.24691358024691354s" repeatCount="indefinite"></animate>
  </rect>
</g><g transform="rotate(312 50 50)">
  <rect x="48.5" y="32" rx="0" ry="0" width="3" height="8" fill="#0055a5">
    <animate attributeName="opacity" values="1;0" keyTimes="0;1" dur="1.8518518518518516s" begin="-0.12345679012345677s" repeatCount="indefinite"></animate>
  </rect>
</g><g transform="rotate(336 50 50)">
  <rect x="48.5" y="32" rx="0" ry="0" width="3" height="8" fill="#0055a5">
    <animate attributeName="opacity" values="1;0" keyTimes="0;1" dur="1.8518518518518516s" begin="0s" repeatCount="indefinite"></animate>
  </rect>
</g>
<!-- [ldio] generated by https://loading.io/ --></svg>